<svg width="87" height="134" viewBox="0 0 87 134" fill="none" xmlns="http://www.w3.org/2000/svg">
<ellipse cx="43.5" cy="129.5" rx="43.5" ry="4.5" fill="url(#paint0_radial_27_93)" fill-opacity="0.08"/>
<path fill-rule="evenodd" clip-rule="evenodd" d="M48.2053 108.675C71.476 84.47 86.6664 68.6699 86.6664 45.2662C86.6664 20.2664 67.2655 0 43.3332 0C19.4009 0 0 20.2664 0 45.2662C0 68.6758 16.0425 85.3601 38.64 108.861C40.1752 110.458 41.7406 112.086 43.3332 113.75C44.9933 112.016 46.6181 110.326 48.2053 108.675ZM43.1665 81C63.8772 81 80.6665 64.2107 80.6665 43.5C80.6665 22.7893 63.8772 6 43.1665 6C22.4558 6 5.6665 22.7893 5.6665 43.5C5.6665 64.2107 22.4558 81 43.1665 81ZM35.9036 26.4552C34.1023 26.4569 32.3755 27.1723 31.1026 28.447C29.8295 29.7201 29.1125 31.4469 29.1107 33.2481C29.1107 35.9067 32.457 42.3341 34.4523 45.93V45.9283C34.745 46.4566 35.301 46.7822 35.9037 46.7822C36.5064 46.7822 37.0624 46.4566 37.3551 45.9283C39.35 42.3333 42.6955 35.9077 42.6967 33.2478C42.6949 31.4466 41.9778 29.7199 40.7049 28.447C39.4318 27.1723 37.7049 26.4569 35.9036 26.4552ZM35.9036 36.0157C34.7848 36.0157 33.775 35.3419 33.3472 34.3079C32.9176 33.2739 33.1549 32.0823 33.9465 31.2907C34.738 30.4992 35.9279 30.2619 36.9619 30.6914C37.9959 31.1192 38.6714 32.1273 38.6714 33.2479C38.6697 34.7755 37.4312 36.0139 35.9036 36.0157ZM37.5521 33.248C37.5521 35.4476 34.2544 35.4476 34.2544 33.248C34.2544 31.0483 37.5521 31.0483 37.5521 33.248ZM52.333 47.3363C52.229 47.2307 52.087 47.1718 51.9381 47.1718C51.7891 47.1718 51.6471 47.2307 51.5432 47.3363L49.6899 49.1896L46.8304 46.3301V46.3283C50.2303 42.5023 51.3823 37.1745 49.8631 32.2834C48.3459 27.3941 44.3797 23.6545 39.4088 22.4268C34.4379 21.1988 29.1863 22.6623 25.5665 26.2822C21.9466 29.9021 20.483 35.1536 21.711 40.1245C22.939 45.0954 26.6784 49.0615 31.5677 50.5788C36.4587 52.0978 41.7866 50.946 45.6126 47.5461L48.4739 50.4056L46.6206 52.2589C46.515 52.3628 46.4561 52.5048 46.4561 52.6538C46.4561 52.8027 46.515 52.9448 46.6206 53.0487L49.2671 55.6952L54.9794 49.983L52.333 47.3363ZM45.0241 45.7394C42.6045 48.1573 39.3242 49.5169 35.9035 49.5169C32.4827 49.5169 29.2025 48.1573 26.7846 45.7394C24.365 43.3198 23.0071 40.0396 23.0071 36.6188C23.0071 33.198 24.365 29.9178 26.7846 27.5C29.2025 25.0804 32.4831 23.7225 35.9035 23.7225C39.3238 23.7225 42.6045 25.0804 45.0241 27.5C47.4385 29.9213 48.7946 33.1998 48.7946 36.6188C48.7946 40.0378 47.4385 43.3181 45.0241 45.7394ZM55.7715 50.7745L64.4106 59.4136C65.5762 60.5809 65.5761 62.4724 64.4105 63.6397L62.9244 65.1258C61.757 66.2915 59.8657 66.2915 58.6983 65.1258L50.0592 56.4867L55.7715 50.7745Z" fill="url(#paint1_linear_27_93)"/>
<defs>
<radialGradient id="paint0_radial_27_93" cx="0" cy="0" r="1" gradientUnits="userSpaceOnUse" gradientTransform="translate(43.5 129.5) scale(43.5 4.5)">
<stop stop-color="#0C1027"/>
<stop offset="1" stop-color="#0C1027" stop-opacity="0"/>
</radialGradient>
<linearGradient id="paint1_linear_27_93" x1="-7.11753" y1="15.7154" x2="89.6768" y2="13.84" gradientUnits="userSpaceOnUse">
<stop stop-color="#5C52D2"/>
<stop offset="1" stop-color="#4285F4"/>
</linearGradient>
</defs>
</svg>
