<svg width="90" height="134" viewBox="0 0 90 134" fill="none" xmlns="http://www.w3.org/2000/svg">
<ellipse cx="46.5" cy="129.5" rx="43.5" ry="4.5" fill="url(#paint0_radial_27_94)" fill-opacity="0.08"/>
<path fill-rule="evenodd" clip-rule="evenodd" d="M86.6664 45.2662C86.6664 68.6699 71.476 84.47 48.2053 108.675C46.6181 110.326 44.9933 112.016 43.3332 113.75C41.7406 112.086 40.1752 110.458 38.64 108.861C16.0425 85.3601 0 68.6758 0 45.2662C0 20.2664 19.4009 0 43.3332 0C67.2655 0 86.6664 20.2664 86.6664 45.2662ZM80.6665 43.5C80.6665 64.2107 63.8772 81 43.1665 81C22.4558 81 5.6665 64.2107 5.6665 43.5C5.6665 22.7893 22.4558 6 43.1665 6C63.8772 6 80.6665 22.7893 80.6665 43.5ZM37.6904 29.4881C37.429 29.7526 37.431 30.1735 37.6904 30.4321L39.2688 32.0417C39.5224 32.3002 39.9313 32.3002 40.1848 32.0417C40.4384 31.7831 40.4384 31.3662 40.1848 31.1076L39.8546 30.7709C39.8291 30.7448 39.8212 30.7088 39.835 30.6747C39.8487 30.6406 39.8802 30.6206 39.9156 30.6206L48.5215 30.6186C48.8793 30.6186 49.1683 30.3239 49.1683 29.9591C49.1683 29.5943 48.8793 29.2996 48.5215 29.2996H39.9156C39.8782 29.2996 39.8487 29.2796 39.835 29.2455C39.8212 29.2115 39.8291 29.1754 39.8546 29.1493L40.1848 28.8126C40.4384 28.554 40.4384 28.1371 40.1848 27.8786C39.9313 27.62 39.5224 27.62 39.2688 27.8786L37.6904 29.4881ZM48.7002 42.1739V38.6502C48.7002 34.5473 51.9911 31.19 56.0168 31.19C60.0405 31.19 63.333 34.5473 63.333 38.6502V42.1739C63.333 43.1079 62.586 43.8676 61.672 43.8676H50.3613C49.4453 43.8676 48.7002 43.1059 48.7002 42.1739ZM59.6588 25.7161C59.6588 23.6636 58.0273 22 56.0145 22C54.0036 22 52.3721 23.6636 52.3701 25.7161C52.3701 27.7686 54.0016 29.4322 56.0145 29.4322C58.0273 29.4322 59.6588 27.7686 59.6588 25.7161ZM23.3332 42.1739V38.6502C23.3332 34.5473 26.6255 31.19 30.6513 31.19C34.675 31.19 37.9675 34.5473 37.9675 38.6502V42.1739C37.9675 43.1079 37.2205 43.8676 36.3065 43.8676H24.9942C24.0782 43.8676 23.3332 43.1059 23.3332 42.1739ZM34.2938 25.7161C34.2938 23.6636 32.6623 22 30.6494 22C28.6366 22 27.0051 23.6636 27.0051 25.7161C27.0051 27.7686 28.6366 29.4322 30.6494 29.4322C32.6623 29.4322 34.2938 27.7686 34.2938 25.7161ZM43.332 53.3224C39.3083 53.3224 36.0157 56.6796 36.0157 60.7826L36.0154 64.3063C36.0154 65.2403 36.7624 66 37.6764 66H48.9872C49.9032 66 50.6482 65.2383 50.6482 64.3063V60.7826C50.6482 56.6797 47.3557 53.3224 43.332 53.3224ZM46.9763 47.8485C46.9763 45.796 45.3448 44.1324 43.332 44.1324C41.3191 44.1324 39.6876 45.796 39.6876 47.8485C39.6876 49.901 41.3191 51.5646 43.332 51.5646C45.3448 51.5646 46.9763 49.901 46.9763 47.8485ZM33.5743 57.4956C33.8829 57.3131 33.9891 56.9123 33.8121 56.5976L29.5053 48.9972C29.4876 48.9652 29.4896 48.9271 29.5112 48.899C29.5328 48.869 29.5663 48.8569 29.6016 48.867L30.0577 48.9912C30.4036 49.0855 30.7575 48.875 30.8498 48.5242C30.9423 48.1714 30.7358 47.8107 30.3918 47.7164L28.2296 47.1252C27.8836 47.031 27.5298 47.2414 27.4374 47.5922L26.8576 49.797C26.7652 50.1498 26.9716 50.5106 27.3156 50.6048C27.6615 50.699 28.0153 50.4885 28.1077 50.1378L28.2296 49.6727C28.2394 49.6387 28.2669 49.6126 28.3023 49.6086C28.3377 49.6046 28.3711 49.6206 28.3888 49.6527L32.6937 57.253C32.8726 57.5677 33.2657 57.6759 33.5743 57.4956ZM34.4706 51.761C34.4923 51.731 34.4942 51.6949 34.4765 51.6628L32.2632 47.7543C32.0843 47.4396 32.1905 47.0367 32.4991 46.8543C32.8077 46.6719 33.2028 46.7801 33.3817 47.0948L35.595 51.0054C35.6127 51.0374 35.6461 51.0535 35.6815 51.0495C35.7169 51.0454 35.7444 51.0214 35.7542 50.9853L35.8761 50.5223C35.9685 50.1695 36.3243 49.9611 36.6683 50.0553C37.0142 50.1495 37.2187 50.5123 37.1263 50.863L36.5464 53.0679C36.454 53.4206 36.0982 53.6291 35.7543 53.5349L33.592 52.9436C33.246 52.8494 33.0416 52.4866 33.134 52.1359C33.2264 51.7831 33.5822 51.5746 33.9261 51.6688L34.3802 51.7931C34.4136 51.8011 34.449 51.7891 34.4706 51.761ZM58.9217 47.1931C58.6131 47.0127 58.218 47.1209 58.0411 47.4356L53.7382 55.04C53.7205 55.0721 53.6871 55.0881 53.6517 55.0841C53.6163 55.0801 53.5888 55.056 53.579 55.0199L53.4571 54.5549C53.3647 54.2022 53.0089 53.9937 52.6649 54.0879C52.319 54.1821 52.1145 54.5449 52.2069 54.8957L52.7868 57.1005C52.8792 57.4533 53.2349 57.6617 53.5789 57.5675L55.7412 56.9762C56.0872 56.882 56.2916 56.5192 56.1992 56.1685C56.1068 55.8157 55.751 55.6073 55.407 55.7015L54.951 55.8257C54.9176 55.8338 54.8822 55.8217 54.8606 55.7937C54.839 55.7636 54.837 55.7275 54.8547 55.6954L59.1595 48.091C59.3364 47.7763 59.2303 47.3735 58.9217 47.1931ZM53.6025 49.2696C53.5672 49.2656 53.5337 49.2816 53.5161 49.3137L51.3027 53.2262C51.1238 53.5409 50.7307 53.6491 50.4221 53.4687C50.1135 53.2863 50.0073 52.8855 50.1842 52.5708L52.3996 48.6582C52.4172 48.6262 52.4153 48.5881 52.3937 48.56C52.372 48.53 52.3386 48.5179 52.3032 48.528L51.8472 48.6522C51.5012 48.7465 51.1474 48.536 51.055 48.1852C50.9626 47.8325 51.169 47.4717 51.513 47.3775L53.6753 46.7862C54.0212 46.692 54.3751 46.9025 54.4675 47.2532L55.0473 49.458C55.1397 49.8108 54.9333 50.1716 54.5893 50.2658C54.2434 50.36 53.8895 50.1495 53.7971 49.7988L53.6753 49.3338C53.6654 49.2997 53.6379 49.2736 53.6025 49.2696ZM44.7195 33.521L44.3893 33.1843C44.1357 32.9258 44.1357 32.5089 44.3892 32.2483C44.6428 31.9898 45.0517 31.9898 45.3052 32.2483L46.9387 33.922C46.9427 33.926 46.9446 33.928 46.9466 33.932C47.1432 34.1986 47.1156 34.5674 46.8837 34.8019L45.3053 36.4114C45.0517 36.67 44.6428 36.67 44.3893 36.4114C44.1357 36.1528 44.1357 35.7359 44.3893 35.4774L44.7195 35.1406C44.745 35.1146 44.7529 35.0785 44.7391 35.0444C44.7254 35.0103 44.6939 34.9903 44.6586 34.9903H40.2338C39.876 34.9903 39.5871 34.6957 39.5871 34.3308C39.5871 33.966 39.876 33.6714 40.2338 33.6714H44.6586C44.6959 33.6714 44.7254 33.6513 44.7391 33.6173C44.7529 33.5832 44.745 33.5471 44.7195 33.521Z" fill="url(#paint1_linear_27_94)"/>
<defs>
<radialGradient id="paint0_radial_27_94" cx="0" cy="0" r="1" gradientUnits="userSpaceOnUse" gradientTransform="translate(46.5 129.5) scale(43.5 4.5)">
<stop stop-color="#0C1027"/>
<stop offset="1" stop-color="#0C1027" stop-opacity="0"/>
</radialGradient>
<linearGradient id="paint1_linear_27_94" x1="-7.11753" y1="15.7154" x2="89.6768" y2="13.84" gradientUnits="userSpaceOnUse">
<stop stop-color="#5C52D2"/>
<stop offset="1" stop-color="#4285F4"/>
</linearGradient>
</defs>
</svg>
