<svg width="87" height="133" viewBox="0 0 87 133" fill="none" xmlns="http://www.w3.org/2000/svg">
<path fill-rule="evenodd" clip-rule="evenodd" d="M86.8334 45.2662C86.8334 68.6698 71.6429 84.47 48.3723 108.675C46.7851 110.326 45.1603 112.016 43.5002 113.75C41.9076 112.086 40.3422 110.458 38.8071 108.861L38.8069 108.861C16.2095 85.36 0.166992 68.6758 0.166992 45.2662C0.166992 20.2664 19.5679 0 43.5002 0C67.4325 0 86.8334 20.2664 86.8334 45.2662ZM80.8335 43.5C80.8335 64.2107 64.0442 81 43.3335 81C22.6228 81 5.8335 64.2107 5.8335 43.5C5.8335 22.7893 22.6228 6 43.3335 6C64.0442 6 80.8335 22.7893 80.8335 43.5ZM33.5238 23H52.8102C59.0556 23 64.167 28.1114 64.167 34.3568V53.6432C64.167 59.8886 59.0556 65 52.8121 65H33.5238C27.2784 65 22.167 59.8886 22.167 53.6451V34.3568C22.167 28.1114 27.2784 23 33.5238 23ZM52.1153 45.6389H34.2163C30.0544 45.6389 26.8205 48.9639 26.9153 53.3262C26.9956 56.9718 30.2475 60.2202 34.0283 60.2585L52.1153 60.2603C54.1258 60.2603 55.9542 59.4382 57.2794 58.1129C61.9046 53.4883 58.5539 45.6389 52.1153 45.6389ZM38.0882 56.8206C41.6445 53.2642 38.8996 47.1246 33.7971 47.491C31.0629 47.7024 28.9662 49.848 28.7493 52.6681C28.3867 57.373 34.4223 60.4865 38.0882 56.8206ZM39.0633 47.4747C40.3649 48.6285 41.2453 50.2327 41.4714 52.0319L52.201 52.0321C53.4095 52.0321 53.4095 53.8678 52.201 53.8678H41.4695C41.2453 55.6689 40.363 57.273 39.0614 58.4251H52.1174C56.9244 58.4251 59.4564 52.5569 55.9838 49.0843C54.9903 48.0908 53.6213 47.4747 52.1174 47.4747H39.0633ZM48.2455 38.9235C49.2317 39.9079 50.5916 40.5185 52.0937 40.5258C55.0397 40.5132 57.3526 38.3239 57.5841 35.3325C57.8104 32.3885 55.333 29.634 52.1866 29.5775C47.1937 29.5593 44.833 35.511 48.2455 38.9235ZM52.2103 27.7401H34.2161C32.2056 27.7401 30.3772 28.5624 29.052 29.8858C24.4268 34.5105 27.7775 42.3598 34.2161 42.3598H52.2103C56.3427 42.3066 59.5109 38.9891 59.4161 34.6743C59.3363 31.0122 56.1497 27.813 52.2103 27.7401ZM47.2698 40.5261C45.9682 39.3722 45.0878 37.768 44.8617 35.9688L34.1321 35.9686C32.9236 35.9686 32.9236 34.1329 34.1321 34.1329L44.8617 34.1348C45.086 32.3356 45.9682 30.7277 47.2698 29.5775H34.2158C29.4087 29.5775 26.8767 35.4456 30.3493 38.9183C31.3429 39.9099 32.7118 40.5261 34.2158 40.5261H47.2698Z" fill="url(#paint0_linear_27_95)"/>
<ellipse cx="43.5" cy="128.25" rx="43.5" ry="4.5" fill="url(#paint1_radial_27_95)" fill-opacity="0.08"/>
<defs>
<linearGradient id="paint0_linear_27_95" x1="-6.95054" y1="15.7154" x2="89.8438" y2="13.84" gradientUnits="userSpaceOnUse">
<stop stop-color="#5C52D2"/>
<stop offset="1" stop-color="#4285F4"/>
</linearGradient>
<radialGradient id="paint1_radial_27_95" cx="0" cy="0" r="1" gradientUnits="userSpaceOnUse" gradientTransform="translate(43.5 128.25) scale(43.5 4.5)">
<stop stop-color="#0C1027"/>
<stop offset="1" stop-color="#0C1027" stop-opacity="0"/>
</radialGradient>
</defs>
</svg>
