<svg width="25" height="30" viewBox="0 0 25 30" fill="none" xmlns="http://www.w3.org/2000/svg">
<path fill-rule="evenodd" clip-rule="evenodd" d="M17.016 5.29969C18.0882 4.07444 18.8109 2.36792 18.6131 0.669983C17.0681 0.727983 15.1988 1.64315 14.091 2.86695C13.0961 3.953 12.2277 5.68833 12.4612 7.35293C14.1847 7.47907 15.9438 6.52637 17.016 5.29969ZM20.8809 16.0764C20.924 20.4655 24.9554 21.9255 25 21.9444C24.9673 22.0473 24.3561 24.0248 22.8765 26.0693C21.5961 27.8354 20.2682 29.5943 18.1759 29.632C16.1208 29.6683 15.4591 28.4808 13.108 28.4808C10.7585 28.4808 10.0239 29.5942 8.07882 29.6681C6.0594 29.7392 4.5203 27.7574 3.23103 25.9971C0.592992 22.3967 -1.42196 15.8227 1.28447 11.3858C2.62877 9.18324 5.03036 7.78634 7.63865 7.75154C9.62089 7.71529 11.4931 9.01181 12.705 9.01181C13.917 9.01181 16.1922 7.45305 18.5834 7.68216C19.5842 7.72131 22.3947 8.06339 24.1985 10.5588C24.0527 10.6444 20.8452 12.4079 20.8809 16.0764Z" fill="#0B1319"/>
</svg>
