<svg width="34" height="39" viewBox="0 0 34 39" fill="none" xmlns="http://www.w3.org/2000/svg">
<path fill-rule="evenodd" clip-rule="evenodd" d="M22.6837 6.19817C24.0936 4.58697 25.0439 2.34289 24.7839 0.110107C22.7521 0.186378 20.2941 1.38983 18.8372 2.99912C17.529 4.42727 16.387 6.70923 16.6941 8.89818C18.9604 9.06405 21.2738 7.81126 22.6837 6.19817ZM27.766 20.3695C27.8227 26.1412 33.124 28.0612 33.1826 28.086C33.1396 28.2213 32.3359 30.8217 30.3902 33.5102C28.7065 35.8326 26.9603 38.1456 24.2089 38.1952C21.5065 38.2429 20.6363 36.6813 17.5447 36.6813C14.455 36.6813 13.489 38.1454 10.9313 38.2427C8.27573 38.3361 6.25181 35.73 4.55642 33.4152C1.0874 28.6808 -1.56226 20.036 1.9967 14.2014C3.76445 11.305 6.92254 9.46812 10.3524 9.42236C12.9591 9.37469 15.421 11.0796 17.0148 11.0796C18.6085 11.0796 21.6003 9.02985 24.7447 9.33112C26.0608 9.3826 29.7566 9.83244 32.1286 13.1139C31.937 13.2264 27.719 15.5455 27.766 20.3695Z" fill="white"/>
</svg>
