<svg width="24" height="24" viewBox="0 0 24 24" fill="none" xmlns="http://www.w3.org/2000/svg">
<path fill-rule="evenodd" clip-rule="evenodd" d="M21 12.0152C21.0009 11.3847 20.9458 10.7552 20.8357 10.1338H11.8293V13.6975H16.9877C16.7745 14.8476 16.0854 15.8634 15.0803 16.5094V18.8226H18.1589C19.9615 17.2123 21 14.831 21 12.0152Z" fill="#4285F4"/>
<path fill-rule="evenodd" clip-rule="evenodd" d="M11.8291 21.0574C14.4063 21.0574 16.5763 20.2373 18.1587 18.8238L15.0801 16.5106C14.2233 17.0734 13.1197 17.3946 11.8291 17.3946C9.33818 17.3946 7.22388 15.7677 6.46788 13.5752H3.29639V15.9591C4.91743 19.0846 8.219 21.0571 11.8291 21.0574Z" fill="#34A853"/>
<path fill-rule="evenodd" clip-rule="evenodd" d="M6.46794 13.5752C6.06819 12.4264 6.06819 11.1822 6.46794 10.0334V7.64941H3.29645C1.94057 10.2635 1.94057 13.345 3.29645 15.9591L6.46794 13.5752Z" fill="#FBBC04"/>
<path fill-rule="evenodd" clip-rule="evenodd" d="M11.8291 6.21411C13.191 6.19242 14.507 6.69107 15.4927 7.60205L18.2184 4.96106C16.49 3.3882 14.2002 2.52464 11.8291 2.55138C8.219 2.55153 4.91743 4.52414 3.29639 7.64947L6.46788 10.0334C7.22388 7.84104 9.33818 6.21411 11.8291 6.21411Z" fill="#EA4335"/>
</svg>
