<svg width="28" height="29" viewBox="0 0 28 29" fill="none" xmlns="http://www.w3.org/2000/svg">
<path fill-rule="evenodd" clip-rule="evenodd" d="M14 0.669983C6.26801 0.669983 0 6.938 0 14.67C0 22.402 6.26801 28.67 14 28.67C21.732 28.67 28 22.402 28 14.67C28 6.938 21.732 0.669983 14 0.669983ZM6.7207 12.2652H9.89341V21.7979H6.7207V12.2652ZM10.1026 9.31659C10.0821 8.38192 9.41367 7.67001 8.3283 7.67001C7.24294 7.67001 6.53337 8.38192 6.53337 9.31659C6.53337 10.2319 7.22197 10.9643 8.28712 10.9643H8.30739C9.41367 10.9643 10.1026 10.2319 10.1026 9.31659ZM17.6823 12.0416C19.7701 12.0416 21.3352 13.4043 21.3352 16.3323L21.3351 21.7981H18.1625V16.6981C18.1625 15.4171 17.7034 14.543 16.5549 14.543C15.6784 14.543 15.1563 15.1323 14.927 15.7014C14.8431 15.9054 14.8225 16.1896 14.8225 16.4745V21.7983H11.6494C11.6494 21.7983 11.6912 13.1602 11.6494 12.2657H14.8225V13.6159C15.2436 12.9668 15.9978 12.0416 17.6823 12.0416Z" fill="black"/>
</svg>
