<svg width="28" height="29" viewBox="0 0 28 29" fill="none" xmlns="http://www.w3.org/2000/svg">
<path d="M13.1935 14.7365L1.57693 26.8615L1.22334 27.2342C1.00351 26.9214 0.85537 26.5486 0.821943 26.1345C0.812392 26.0609 0.807617 25.9872 0.807617 25.9136V3.55471C0.807617 3.05322 0.965312 2.60225 1.22334 2.23401L13.1935 14.7365Z" fill="#4285F4"/>
<path d="M18.4167 9.27892L13.1938 14.7364L1.22363 2.2339C1.90216 1.27685 3.28793 0.867373 4.46348 1.52077L18.4167 9.27892Z" fill="#34A853"/>
<path d="M25.7848 14.8009C25.7657 15.5649 25.3595 16.3287 24.571 16.7658L18.4163 20.1893L13.1934 14.7366L18.4163 9.27911L22.2869 11.4327L24.571 12.7026C25.4073 13.1675 25.8135 13.9865 25.7848 14.8009Z" fill="#FBBC05"/>
<path d="M1.22461 27.2337C1.90347 28.1912 3.28836 28.5993 4.46171 27.947L18.4148 20.1895L13.1918 14.7343L1.22461 27.2337Z" fill="#EB4335"/>
<path opacity="0.2" d="M27.5 14.1868C27.3541 13.5272 26.9361 12.9181 26.2439 12.5333L23.7694 11.1576L19.5763 8.82451L4.46021 0.419849C3.1867 -0.288002 1.68545 0.155593 0.95037 1.1924C0.670836 1.59134 0.5 2.07988 0.5 2.62317V16.5786C2.68115 16.757 4.91367 16.8504 7.18663 16.8504C10.0399 16.8504 12.8267 16.699 15.5303 16.4207L13.9232 14.7421L15.531 16.4207C19.7652 15.9849 23.7836 15.2233 27.5 14.1868Z" fill="white"/>
</svg>
