<svg width="34" height="38" viewBox="0 0 34 38" fill="none" xmlns="http://www.w3.org/2000/svg">
<path d="M16.684 18.9227L1.40814 34.8671L0.943163 35.3572C0.654089 34.9458 0.45928 34.4556 0.415323 33.9111C0.402764 33.8144 0.396484 33.7174 0.396484 33.6206V4.21866C0.396484 3.55919 0.603853 2.96618 0.943163 2.48193L16.684 18.9227Z" fill="white" stroke="#F76513"/>
<path d="M23.5523 11.7461L16.6842 18.9227L0.943359 2.48193C1.83563 1.2234 3.65792 0.684941 5.20376 1.54416L23.5523 11.7461Z" fill="white" stroke="#F76513"/>
<path d="M33.2413 19.0073C33.2162 20.0118 32.6821 21.0163 31.6452 21.5911L23.5517 26.093L16.6836 18.9226L23.5517 11.7461L28.6416 14.5781L31.6452 16.248C32.7449 16.8593 33.2791 17.9363 33.2413 19.0073Z" fill="white" stroke="#F76513"/>
<path d="M0.945312 35.3563C1.83801 36.6155 3.65915 37.1522 5.20211 36.2944L23.5504 26.0932L16.6822 18.9197L0.945312 35.3563Z" fill="white" stroke="#F76513"/>
</svg>
